# OBJ written from D:\PROJECT 3D Asset Store\Electronic\Fan (Plafon)\Fans.obj

o Mesh
v -0.175 -0.166761 -0.000411042
v -0.146195 -0.16734 -0.107905
v -0.0675 -0.167765 -0.186596
v 0.04 -0.16792 -0.215399
v 0.1475 -0.167765 -0.186596
v 0.226195 -0.16734 -0.107905
v 0.255 -0.166761 -0.000411042
v 0.226195 -0.166181 0.107083
v 0.1475 -0.165756 0.185774
v 0.04 -0.165601 0.214576
v -0.0675 -0.165756 0.185774
v -0.146195 -0.166181 0.107083
v -0.175 -0.201768 -0.000787153
v -0.146195 -0.202348 -0.108281
v -0.0675 -0.202773 -0.186972
v 0.04 -0.202928 -0.215775
v 0.1475 -0.202773 -0.186972
v 0.226195 -0.202348 -0.108281
v 0.255 -0.201768 -0.000787153
v 0.226195 -0.201188 0.106707
v 0.1475 -0.200764 0.185398
v 0.04 -0.200608 0.2142
v -0.0675 -0.200764 0.185398
v -0.146195 -0.201188 0.106707
v -1.25345 -0.0987678 -0.453777
v -1.22692 -0.0784144 -0.723816
v -1.00611 -0.0574559 -0.881697
v 1.08003 -0.101136 -0.892692
v 1.30084 -0.0784712 -0.734342
v 1.32738 -0.0552017 -0.463834
v 0.293422 -0.0890504 1.34751
v 0.0460777 -0.0666339 1.4599
v -0.201267 -0.0454275 1.34797
v -1.24738 -0.1333 -0.464674
v -1.22084 -0.112947 -0.734712
v -1.00003 -0.0919884 -0.892593
v 1.08611 -0.135555 -0.882536
v 1.30692 -0.11289 -0.724186
v 1.33345 -0.0896206 -0.453679
v 0.281267 -0.123526 1.34714
v 0.0339223 -0.10111 1.45953
v -0.213422 -0.0799032 1.3476
v -0.175 -0.201768 -0.000787153
v -0.146195 -0.202348 -0.108281
v -0.0675 -0.202773 -0.186972
v 0.04 -0.202928 -0.215775
v 0.1475 -0.202773 -0.186972
v 0.226195 -0.202348 -0.108281
v 0.255 -0.201768 -0.000787153
v 0.226195 -0.201188 0.106707
v 0.1475 -0.200764 0.185398
v 0.04 -0.200608 0.2142
v -0.0675 -0.200764 0.185398
v -0.146195 -0.201188 0.106707
vn 0.0293122 0.999567 0.0024623
vn -2.58483e-007 0.999985 -0.00539466
vn 0.00991062 0.999052 -0.0423793
vn 0.00137562 0.99877 -0.0495672
vn -0.00784492 0.999368 -0.0346703
vn -0.0370436 0.999303 0.00453539
vn -0.0390067 0.999118 0.0155415
vn -0.0214677 0.99964 0.016076
vn 0.0271326 0.999395 0.0217428
vn 0.0376308 0.999131 0.0179346
vn -0.258777 0.010377 -0.965881
vn 0 0.0107429 -0.999942
vn 0.258777 0.010377 -0.965881
vn 0.965915 -0.00278096 0.258846
vn 0.865993 -0.00537209 0.500028
vn 0.707045 -0.00759705 0.707127
vn -0.707045 -0.00759736 0.707127
vn -0.865993 -0.00537223 0.500028
vn -0.965915 -0.00278092 0.258846
vn 0.0748192 -0.996595 -0.0346417
vn 0.0545365 -0.997301 -0.0491595
vn -0.595769 0.00862824 -0.80311
vn -0.0584849 0.99795 0.0260002
vn -0.0429153 0.998374 0.0375318
vn -0.0740324 0.997151 0.0144588
vn 0.397535 -0.00985771 0.917534
vn 0.0950553 -0.995269 -0.0201023
vn 0.00206268 0.99743 -0.0716213
vn -0.0156824 0.997832 -0.0639141
vn 0.019807 0.996654 -0.0793017
vn -0.993426 0.00122985 -0.114469
vn -0.0254209 -0.994638 0.100243
vn -0.00275105 -0.995937 0.0900117
vn 0.0199205 -0.996618 0.0797247
vn 0.993426 0.00122985 -0.114469
vn -0.0696347 -0.9955 -0.0642682
vn -0.0720682 -0.99662 -0.0394328
vn -0.0744568 -0.997118 -0.0145727
vn -0.397535 -0.00985771 0.917534
vn 0.0564222 0.997968 0.0295882
vn 0.0585977 0.998228 0.010317
vn 0.0542255 0.997333 0.0488483
vn 0.595769 0.00862824 -0.80311
vn -0.984409 -0.139417 -0.107243
vn -0.584461 0.148832 -0.797656
vn 0.586581 -0.132188 -0.79903
vn 0.983927 0.141668 -0.108706
vn 0.397714 -0.14995 0.905173
vn -0.399352 0.131058 0.907382
vn 2.58483e-007 -0.999985 0.00539466
vt 0.991481 0.814705
vt 0.991481 0.685295
vt 0.926777 0.573223
vt 0.814705 0.508519
vt 0.685295 0.508519
vt 0.573223 0.573223
vt 0.508519 0.685295
vt 0.508519 0.814705
vt 0.573223 0.926777
vt 0.685295 0.991481
vt 0.814705 0.991481
vt 0.926777 0.926777
vt 0.166667 0.5
vt 0.166667 0
vt 0.25 0
vt 0.25 0.5
vt 0.333333 0
vt 0.333333 0.5
vt 0.5 0.5
vt 0.5 0
vt 0.583333 0
vt 0.583333 0.5
vt 0.666667 0
vt 0.666667 0.5
vt 0.833333 0.5
vt 0.833333 0
vt 0.916667 0
vt 0.916667 0.5
vt 1 0
vt 1 0.5
vt 0.416667 0.5
vt 0.416667 0
vt 0.75 0
vt 0.75 0.5
vt 0.0833333 0.5
vt 0 0.5
vt 0 0
vt 0.0833333 0
vt 0.491481 0.814705
vt 0.426777 0.926777
vt 0.314705 0.991481
vt 0.185295 0.991481
vt 0.0732233 0.926777
vt 0.00851854 0.814705
vt 0.00851855 0.685295
vt 0.0732233 0.573223
vt 0.185295 0.508519
vt 0.314705 0.508519
vt 0.426777 0.573223
vt 0.491481 0.685295
mtllib Fans.mtl
usemtl Default
g Default
f 43/39/50 44/40/50 45/41/50 46/42/50 47/43/50 48/44/50 49/45/50 50/46/50 51/47/50 52/48/50 53/49/50 54/50/50
usemtl Wing
f 1/1/1 12/2/2 11/3/3 10/4/4 9/5/5 8/6/2 7/7/6 6/8/7 5/9/8 4/10/2 3/11/9 2/12/10
f 15/13/11 3/14/11 4/15/12 16/16/12
f 16/16/12 4/15/12 5/17/13 17/18/13
f 19/19/14 7/20/14 8/21/15 20/22/15
f 20/22/15 8/21/15 9/23/16 21/24/16
f 23/25/17 11/26/17 12/27/18 24/28/18
f 24/28/18 12/27/18 1/29/19 13/30/19
f 18/31/20 17/18/21 37/18/21 38/31/20
f 17/18/22 5/17/22 28/17/22 37/18/22
f 5/17/8 6/32/7 29/32/23 28/17/24
f 6/32/7 7/20/6 30/20/25 29/32/23
f 7/20/26 19/19/26 39/19/26 30/20/26
f 19/19/27 18/31/20 38/31/20 39/19/27
f 9/23/5 10/33/4 32/33/28 31/23/29
f 10/33/4 11/26/3 33/26/30 32/33/28
f 11/26/31 23/25/31 42/25/31 33/26/31
f 23/25/32 22/34/33 41/34/33 42/25/32
f 22/34/33 21/24/34 40/24/34 41/34/33
f 21/24/35 9/23/35 31/23/35 40/24/35
f 15/13/36 14/35/37 35/35/37 36/13/36
f 14/35/37 13/36/38 34/36/38 35/35/37
f 13/36/39 1/37/39 25/37/39 34/36/39
f 1/37/1 2/38/10 26/38/40 25/37/41
f 2/38/10 3/14/9 27/14/42 26/38/40
f 3/14/43 15/13/43 36/13/43 27/14/43
f 34/36/44 25/37/44 26/38/44 35/35/44
f 35/35/45 26/38/45 27/14/45 36/13/45
f 37/18/46 28/17/46 29/32/46 38/31/46
f 38/31/47 29/32/47 30/20/47 39/19/47
f 40/24/48 31/23/48 32/33/48 41/34/48
f 41/34/49 32/33/49 33/26/49 42/25/49

o Mesh (2)
v -0.175 -0.166769 -0.000985163
v -0.146195 -0.167349 -0.108479
v -0.0675 -0.167773 -0.18717
v 0.04 -0.167928 -0.215973
v 0.1475 -0.167773 -0.18717
v 0.226195 -0.167349 -0.108479
v 0.255 -0.166769 -0.000985163
v 0.226195 -0.166189 0.106509
v 0.1475 -0.165764 0.185199
v 0.04 -0.165609 0.214002
v -0.0675 -0.165764 0.185199
v -0.146195 -0.166189 0.106509
v -0.175 -0.201768 -0.000787153
v -0.146195 -0.202348 -0.108281
v -0.0675 -0.202773 -0.186972
v 0.04 -0.202928 -0.215775
v 0.1475 -0.202773 -0.186972
v 0.226195 -0.202348 -0.108281
v 0.255 -0.201768 -0.000787153
v 0.226195 -0.201188 0.106707
v 0.1475 -0.200764 0.185398
v 0.04 -0.200608 0.2142
v -0.0675 -0.200764 0.185398
v -0.146195 -0.201188 0.106707
v -0.134624 -0.286767 -0.000328607
v -0.111229 -0.287238 -0.0876342
v -0.0473127 -0.287583 -0.151547
v 0.04 -0.287709 -0.174941
v 0.127313 -0.287583 -0.151547
v 0.191229 -0.287238 -0.0876342
v 0.214624 -0.286767 -0.000328607
v 0.191229 -0.286296 0.086977
v 0.127313 -0.285951 0.15089
v 0.04 -0.285825 0.174284
v -0.0473127 -0.285951 0.15089
v -0.111229 -0.286296 0.086977
v -0.0518018 -0.301767 -0.000247646
v -0.0395038 -0.302014 -0.0461415
v -0.0059029 -0.302196 -0.0797405
v 0.04 -0.302262 -0.0920395
v 0.0859029 -0.302196 -0.0797405
v 0.119504 -0.302014 -0.0461416
v 0.131802 -0.301767 -0.000247646
v 0.119504 -0.301519 0.0456463
v 0.0859029 -0.301338 0.0792452
v 0.04 -0.301271 0.0915442
v -0.0059029 -0.301338 0.0792452
v -0.0395038 -0.301519 0.0456463
v -0.0259198 -0.341766 -3.1859e-005
v -0.0170896 -0.341944 -0.0329846
v 0.00703767 -0.342074 -0.0571105
v 0.04 -0.342122 -0.0659422
v 0.0729623 -0.342074 -0.0571105
v 0.0970896 -0.341944 -0.0329846
v 0.10592 -0.341766 -3.1859e-005
v 0.0970896 -0.341588 0.0329209
v 0.0729623 -0.341458 0.0570468
v 0.04 -0.341411 0.0658785
v 0.00703766 -0.341458 0.0570468
v -0.0170896 -0.341588 0.0329209
v -0.15533 -0.10177 -0.00133582
v -0.129161 -0.102296 -0.0989943
v -0.0576652 -0.102682 -0.170486
v 0.04 -0.102823 -0.196653
v 0.137665 -0.102682 -0.170486
v 0.209161 -0.102296 -0.0989943
v 0.23533 -0.10177 -0.00133582
v 0.209161 -0.101243 0.0963227
v 0.137665 -0.100857 0.167814
v 0.04 -0.100716 0.193982
v -0.0576652 -0.100857 0.167814
v -0.129161 -0.101243 0.0963227
v -0.0901071 -0.10177 -0.00133582
v -0.0726769 -0.102121 -0.0663826
v -0.0250549 -0.102377 -0.114002
v 0.04 -0.102471 -0.131432
v 0.105055 -0.102377 -0.114002
v 0.152677 -0.102121 -0.0663826
v 0.170107 -0.10177 -0.00133582
v 0.152677 -0.101419 0.063711
v 0.105055 -0.101162 0.11133
v 0.04 -0.101068 0.128761
v -0.0250549 -0.101162 0.11133
v -0.0726769 -0.101419 0.063711
v -0.0901071 -0.0567703 -0.00157858
v -0.0726769 -0.0571212 -0.0666254
v -0.0250549 -0.0573781 -0.114245
v 0.04 -0.0574721 -0.131675
v 0.105055 -0.0573781 -0.114245
v 0.152677 -0.0571212 -0.0666254
v 0.170107 -0.0567703 -0.00157858
v 0.152677 -0.0564194 0.0634682
v 0.105055 -0.0561625 0.111087
v 0.04 -0.0560684 0.128518
v -0.0250549 -0.0561625 0.111087
v -0.0726769 -0.0564194 0.0634682
v -0.00521422 -0.0567703 -0.00157858
v 0.000841737 -0.0568922 -0.0241784
v 0.0173901 -0.0569815 -0.0407258
v 0.04 -0.0570141 -0.0467838
v 0.0626099 -0.0569815 -0.0407258
v 0.0791582 -0.0568922 -0.0241784
v 0.0852142 -0.0567703 -0.00157858
v 0.0791582 -0.0566483 0.0210213
v 0.0626099 -0.0565591 0.0375687
v 0.04 -0.0565264 0.0436266
v 0.0173901 -0.0565591 0.0375687
v 0.000841738 -0.0566483 0.0210213
v -0.00521422 0.513221 -0.00465353
v 0.000841737 0.5131 -0.0272534
v 0.0173901 0.51301 -0.0438008
v 0.04 0.512978 -0.0498587
v 0.0626099 0.51301 -0.0438008
v 0.0791582 0.5131 -0.0272534
v 0.0852142 0.513221 -0.00465353
v 0.0791582 0.513343 0.0179463
v 0.0626099 0.513433 0.0344937
v 0.04 0.513465 0.0405517
v 0.0173901 0.513433 0.0344937
v 0.000841738 0.513343 0.0179463
v -0.0631899 0.563221 -0.00492328
v -0.0493661 0.562942 -0.0565113
v -0.0115968 0.562739 -0.0942784
v 0.04 0.562664 -0.108103
v 0.0915968 0.562739 -0.0942784
v 0.129366 0.562942 -0.0565113
v 0.14319 0.563221 -0.00492327
v 0.129366 0.563499 0.0466647
v 0.0915968 0.563703 0.0844319
v 0.04 0.563777 0.0982564
v -0.0115968 0.563703 0.0844319
v -0.0493661 0.563499 0.0466647
v -0.10046 0.64822 -0.00538185
v -0.0816426 0.647841 -0.0756051
v -0.0302312 0.647563 -0.127013
v 0.04 0.647462 -0.145831
v 0.110231 0.647563 -0.127013
v 0.161643 0.647841 -0.0756051
v 0.18046 0.64822 -0.00538184
v 0.161643 0.648598 0.0648414
v 0.110231 0.648876 0.11625
v 0.04 0.648977 0.135067
v -0.0302312 0.648876 0.11625
v -0.0816426 0.648598 0.0648414
vn -0.451625 -0.433277 -0.77994
vn -1.53314e-008 -0.433929 -0.900947
vn 0.451625 -0.433277 -0.77994
vn 0.782251 -0.431494 -0.449329
vn 0.903274 -0.429058 0.00231466
vn 0.782251 -0.426621 0.453958
vn 0.451625 -0.424837 0.784569
vn -7.66568e-009 -0.424183 0.905576
vn -0.451625 -0.424837 0.784569
vn -0.782251 -0.426621 0.453958
vn -0.903274 -0.429058 0.00231465
vn -0.782251 -0.431494 -0.449329
vn 0.154334 -0.984459 -0.0837988
vn 0.178211 -0.983978 0.0053082
vn 0.154334 -0.983497 0.0944156
vn 0.0891037 -0.983145 0.159644
vn 1.86477e-009 -0.983016 0.183518
vn -0.0891036 -0.983145 0.159644
vn -0.154334 -0.983497 0.0944155
vn -0.178211 -0.983978 0.00530823
vn -0.154334 -0.984459 -0.0837988
vn -0.0891035 -0.98481 -0.149027
vn 0 -0.984939 -0.172902
vn 0.0891036 -0.98481 -0.149027
vn 0.727086 -0.540973 0.422723
vn 0.419776 -0.539314 0.73002
vn -7.63677e-008 -0.538706 0.842494
vn -0.419775 -0.539314 0.73002
vn -0.727086 -0.540973 0.422724
vn -0.839574 -0.543238 0.00293043
vn -0.727086 -0.545502 -0.416862
vn -0.419776 -0.547159 -0.724159
vn 3.05471e-008 -0.547765 -0.836632
vn 0.419776 -0.547159 -0.724159
vn 0.727086 -0.545502 -0.416862
vn 0.839574 -0.543238 0.00293044
vn 1.6886e-006 -0.999985 0.00539419
vn -0.478553 0.285171 -0.83046
vn -0.828894 0.287061 -0.480136
vn -0.957133 0.289644 -0.00156255
vn -0.828894 0.292225 0.477011
vn -0.478553 0.294114 0.827335
vn -1.53834e-008 0.294805 0.955557
vn 0.478553 0.294114 0.827335
vn 0.828894 0.292225 0.477011
vn 0.957133 0.289644 -0.00156254
vn 0.828894 0.287061 -0.480136
vn 0.478553 0.285171 -0.83046
vn -1.53834e-008 0.284479 -0.958682
vn 2.77703e-008 0.999985 -0.00539462
vn -1.46349e-008 0.999985 -0.00539464
vn -3.31243e-008 0.999985 -0.00539467
vn 5.52577e-008 0.999985 -0.0053947
vn 3.49922e-008 0.999985 -0.00539465
vn -1.13416e-008 0.999985 -0.00539461
vn 2.77703e-008 0.999985 -0.00539463
vn -1.47063e-008 0.999985 -0.00539464
vn -3.31243e-008 0.999985 -0.00539467
vn -9.99997e-010 0.999985 -0.0053946
vn -2.17131e-008 0.999985 -0.00539466
vn -1.10039e-008 0.999985 -0.00539472
vn 0 -0.00539463 -0.999985
vn -0.499986 -0.00467192 -0.866021
vn -0.866017 -0.00269743 -0.500007
vn -1 -8.61735e-009 0
vn -0.866017 0.00269743 0.500007
vn -0.499986 0.00467201 0.866021
vn 0 0.00539463 0.999985
vn 0.499986 0.00467192 0.866021
vn 0.866017 0.00269743 0.500007
vn 1 8.61735e-009 0
vn 0.866017 -0.00269743 -0.500007
vn 0.499986 -0.00467201 -0.866021
vn 7.45599e-008 0.999985 -0.00539462
vn -1.46157e-008 0.999985 -0.0053946
vn -7.7153e-008 0.999985 -0.00539466
vn -1.16951e-008 0.999985 -0.0053946
vn -3.77203e-008 0.999985 -0.00539468
vn -1.35908e-008 0.999985 -0.00539477
vn 7.49716e-008 0.999985 -0.00539462
vn -7.73177e-008 0.999985 -0.00539466
vn 7.3373e-008 0.999985 -0.00539475
vn 4.752e-008 0.999985 -0.00539466
vn -1.39952e-008 0.999985 -0.0053946
vn 0.866017 -0.00269741 -0.500007
vn 0.499986 -0.00467196 -0.866021
vn -1.54268e-008 -0.00539466 -0.999985
vn -0.499986 -0.00467196 -0.866021
vn -0.866017 -0.00269741 -0.500007
vn -1 0 0
vn -0.866017 0.00269741 0.500007
vn -0.499986 0.00467196 0.866021
vn -1.54268e-008 0.00539466 0.999985
vn 0.499986 0.00467196 0.866021
vn 0.866017 0.00269741 0.500007
vn 1 7.23134e-010 1.23415e-007
vn 0.565594 -0.759024 -0.322468
vn 0.32654 -0.760313 -0.561512
vn 0.401698 -0.599158 -0.692566
vn 0.695775 -0.597573 -0.398503
vn 7.56379e-009 -0.760785 -0.649004
vn -3.90532e-009 -0.599738 -0.800196
vn -0.32654 -0.760313 -0.561512
vn -0.401698 -0.599159 -0.692566
vn -0.565594 -0.759024 -0.322468
vn -0.695774 -0.597573 -0.398503
vn -0.653097 -0.757263 0.00408533
vn -0.803418 -0.595406 0.00321208
vn -0.565594 -0.755501 0.330639
vn -0.695774 -0.593239 0.404927
vn -0.32654 -0.75421 0.569682
vn -0.401698 -0.591651 0.69899
vn 3.02552e-008 -0.753738 0.657175
vn 4.29585e-008 -0.59107 0.80662
vn 0.32654 -0.75421 0.569683
vn 0.401698 -0.591651 0.69899
vn 0.565593 -0.755501 0.330639
vn 0.695774 -0.593239 0.404927
vn 0.653097 -0.757263 0.00408526
vn 0.803418 -0.595406 0.00321206
vn 0.793125 -0.399089 0.460088
vn 0.457903 -0.397279 0.795295
vn 0.91583 -0.401559 0.00216628
vn 0.793125 -0.404029 -0.455755
vn 0.457903 -0.405837 -0.790962
vn -1.53432e-008 -0.406498 -0.913652
vn -0.457903 -0.405837 -0.790963
vn -0.793125 -0.404029 -0.455755
vn -0.91583 -0.401559 0.00216625
vn -0.793125 -0.399088 0.460088
vn -0.457902 -0.397279 0.795295
vn 5.37013e-008 -0.396617 0.917984
vn 1.58232e-006 0.999985 -0.00539439
vt 0.314705 0.991481
vt 0.185295 0.991481
vt 0.197033 0.947677
vt 0.302967 0.947677
vt 0.0732233 0.926777
vt 0.105291 0.894709
vt 0.00851854 0.814705
vt 0.0523234 0.802967
vt 0.00851855 0.685295
vt 0.0523234 0.697033
vt 0.0732233 0.573223
vt 0.105291 0.605291
vt 0.185295 0.508519
vt 0.197033 0.552323
vt 0.314705 0.508519
vt 0.302967 0.552323
vt 0.426777 0.573223
vt 0.394709 0.605291
vt 0.491481 0.685295
vt 0.447677 0.697033
vt 0.491481 0.814705
vt 0.447677 0.802967
vt 0.426777 0.926777
vt 0.394709 0.894709
vt 0.142887 0.721299
vt 0.142887 0.778701
vt 0.171588 0.671588
vt 0.221299 0.642887
vt 0.278701 0.642887
vt 0.328412 0.671588
vt 0.357113 0.721299
vt 0.357113 0.778701
vt 0.328412 0.828412
vt 0.278701 0.857113
vt 0.221299 0.857113
vt 0.171588 0.828412
vt 0.229116 0.672059
vt 0.192943 0.692943
vt 0.270884 0.672059
vt 0.307057 0.692943
vt 0.327941 0.729116
vt 0.327941 0.770884
vt 0.307057 0.807057
vt 0.270884 0.827942
vt 0.229116 0.827942
vt 0.192943 0.807057
vt 0.172059 0.770884
vt 0.172059 0.729116
vt 0.442399 0.942399
vt 0.320423 1.01282
vt 0.512822 0.820423
vt 0.512822 0.679577
vt 0.442399 0.557601
vt 0.320423 0.487178
vt 0.179577 0.487178
vt 0.0576007 0.557601
vt -0.0128223 0.679577
vt -0.0128223 0.820423
vt 0.0576007 0.942399
vt 0.179577 1.01282
vt 0.343137 0.402407
vt 0.504456 0.495544
vt 0.156863 0.402407
vt -0.00445602 0.495544
vt -0.0975934 0.656863
vt -0.0975934 0.843137
vt -0.00445607 1.00446
vt 0.156863 1.09759
vt 0.343137 1.09759
vt 0.504456 1.00446
vt 0.597593 0.843137
vt 0.597593 0.656863
vt 0.0981604 1.31667
vt -0.164834 1.16483
vt 0.40184 1.31667
vt 0.664834 1.16483
vt 0.816673 0.90184
vt 0.816673 0.598161
vt 0.664834 0.335167
vt 0.40184 0.183327
vt 0.0981604 0.183327
vt -0.164834 0.335166
vt -0.316673 0.59816
vt -0.316673 0.901839
vt 0.349009 0.650991
vt 0.385249 0.71376
vt 0.28624 0.614751
vt 0.21376 0.614751
vt 0.150991 0.650991
vt 0.114751 0.71376
vt 0.114751 0.78624
vt 0.150991 0.849009
vt 0.21376 0.885249
vt 0.28624 0.885249
vt 0.349009 0.849009
vt 0.385249 0.78624
vt 0.314466 0.814466
vt 0.273596 0.838062
vt 0.338062 0.773596
vt 0.338062 0.726404
vt 0.314466 0.685534
vt 0.273596 0.661938
vt 0.226404 0.661938
vt 0.185534 0.685534
vt 0.161938 0.726404
vt 0.161938 0.773596
vt 0.185534 0.814466
vt 0.226404 0.838062
mtllib Fans.mtl
usemtl Holder
g Default
f 69/51/51 70/52/52 82/53/52 81/54/51
f 70/52/52 71/55/53 83/56/53 82/53/52
f 71/55/53 72/57/54 84/58/54 83/56/53
f 72/57/54 73/59/55 85/60/55 84/58/54
f 73/59/55 74/61/56 86/62/56 85/60/55
f 74/61/56 75/63/57 87/64/57 86/62/56
f 75/63/57 76/65/58 88/66/58 87/64/57
f 76/65/58 77/67/59 89/68/59 88/66/58
f 77/67/59 78/69/60 90/70/60 89/68/59
f 78/69/60 67/71/61 79/72/61 90/70/60
f 67/71/61 68/73/62 80/74/62 79/72/61
f 68/73/62 69/51/51 81/54/51 80/74/62
f 84/58/63 85/60/64 97/75/64 96/76/63
f 85/60/64 86/62/65 98/77/65 97/75/64
f 86/62/65 87/64/66 99/78/66 98/77/65
f 87/64/66 88/66/67 100/79/67 99/78/66
f 88/66/67 89/68/68 101/80/68 100/79/67
f 89/68/68 90/70/69 102/81/69 101/80/68
f 90/70/69 79/72/70 91/82/70 102/81/69
f 79/72/70 80/74/71 92/83/71 91/82/70
f 80/74/71 81/54/72 93/84/72 92/83/71
f 81/54/72 82/53/73 94/85/73 93/84/72
f 82/53/73 83/56/74 95/86/74 94/85/73
f 83/56/74 84/58/63 96/76/63 95/86/74
f 98/77/75 99/78/76 111/87/76 110/88/75
f 99/78/76 100/79/77 112/89/77 111/87/76
f 100/79/77 101/80/78 113/90/78 112/89/77
f 101/80/78 102/81/79 114/91/79 113/90/78
f 102/81/79 91/82/80 103/92/80 114/91/79
f 91/82/80 92/83/81 104/93/81 103/92/80
f 92/83/81 93/84/82 105/94/82 104/93/81
f 93/84/82 94/85/83 106/95/83 105/94/82
f 94/85/83 95/86/84 107/96/84 106/95/83
f 95/86/84 96/76/85 108/97/85 107/96/84
f 96/76/85 97/75/86 109/98/86 108/97/85
f 97/75/86 98/77/75 110/88/75 109/98/86
f 103/92/87 104/93/87 105/94/87 106/95/87 107/96/87 108/97/87 109/98/87 110/88/87 111/87/87 112/89/87 113/90/87 114/91/87
f 57/51/88 56/73/89 116/99/89 117/100/88
f 56/73/89 55/71/90 115/101/90 116/99/89
f 55/71/90 66/69/91 126/102/91 115/101/90
f 66/69/91 65/67/92 125/103/92 126/102/91
f 65/67/92 64/65/93 124/104/93 125/103/92
f 64/65/93 63/63/94 123/105/94 124/104/93
f 63/63/94 62/61/95 122/106/95 123/105/94
f 62/61/95 61/59/96 121/107/96 122/106/95
f 61/59/96 60/57/97 120/108/97 121/107/96
f 60/57/97 59/55/98 119/109/98 120/108/97
f 59/55/98 58/52/99 118/110/99 119/109/98
f 58/52/99 57/51/88 117/100/88 118/110/99
f 125/103/100 124/104/101 136/111/101 137/112/100
f 124/104/101 123/105/102 135/113/102 136/111/101
f 123/105/102 122/106/103 134/114/103 135/113/102
f 122/106/103 121/107/104 133/115/104 134/114/103
f 121/107/104 120/108/105 132/116/105 133/115/104
f 120/108/105 119/109/106 131/117/106 132/116/105
f 119/109/106 118/110/107 130/118/107 131/117/106
f 118/110/107 117/100/108 129/119/108 130/118/107
f 117/100/108 116/99/109 128/120/109 129/119/108
f 116/99/109 115/101/110 127/121/110 128/120/109
f 115/101/110 126/102/111 138/122/111 127/121/110
f 126/102/111 125/103/100 137/112/100 138/122/111
f 130/118/112 129/119/113 141/119/113 142/118/112
f 129/119/113 128/120/114 140/120/114 141/119/113
f 128/120/114 127/121/115 139/121/115 140/120/114
f 127/121/115 138/122/116 150/122/116 139/121/115
f 138/122/116 137/112/117 149/112/117 150/122/116
f 137/112/117 136/111/118 148/111/118 149/112/117
f 136/111/118 135/113/119 147/113/119 148/111/118
f 135/113/119 134/114/120 146/114/120 147/113/119
f 134/114/120 133/115/121 145/115/121 146/114/120
f 133/115/121 132/116/122 144/116/122 145/115/121
f 132/116/122 131/117/123 143/117/123 144/116/122
f 131/117/123 130/118/112 142/118/112 143/117/123
f 143/117/124 142/118/125 154/123/125 155/124/124
f 142/118/125 141/119/126 153/125/126 154/123/125
f 141/119/126 140/120/127 152/126/127 153/125/126
f 140/120/127 139/121/128 151/127/128 152/126/127
f 139/121/128 150/122/129 162/128/129 151/127/128
f 150/122/129 149/112/130 161/129/130 162/128/129
f 149/112/130 148/111/125 160/130/125 161/129/130
f 148/111/125 147/113/131 159/131/131 160/130/125
f 147/113/131 146/114/132 158/132/132 159/131/131
f 146/114/132 145/115/133 157/133/133 158/132/132
f 145/115/133 144/116/134 156/134/134 157/133/133
f 144/116/134 143/117/124 155/124/124 156/134/134
f 156/134/135 155/124/136 167/124/136 168/134/135
f 155/124/136 154/123/137 166/123/137 167/124/136
f 154/123/137 153/125/138 165/125/138 166/123/137
f 153/125/138 152/126/139 164/126/139 165/125/138
f 152/126/139 151/127/140 163/127/140 164/126/139
f 151/127/140 162/128/141 174/128/141 163/127/140
f 162/128/141 161/129/142 173/129/142 174/128/141
f 161/129/142 160/130/143 172/130/143 173/129/142
f 160/130/143 159/131/144 171/131/144 172/130/143
f 159/131/144 158/132/145 170/132/145 171/131/144
f 158/132/145 157/133/146 169/133/146 170/132/145
f 157/133/146 156/134/135 168/134/135 169/133/146
f 168/134/147 167/124/148 179/135/149 180/136/150
f 167/124/148 166/123/151 178/137/152 179/135/149
f 166/123/151 165/125/153 177/138/154 178/137/152
f 165/125/153 164/126/155 176/139/156 177/138/154
f 164/126/155 163/127/157 175/140/158 176/139/156
f 163/127/157 174/128/159 186/141/160 175/140/158
f 174/128/159 173/129/161 185/142/162 186/141/160
f 173/129/161 172/130/163 184/143/164 185/142/162
f 172/130/163 171/131/165 183/144/166 184/143/164
f 171/131/165 170/132/167 182/145/168 183/144/166
f 170/132/167 169/133/169 181/146/170 182/145/168
f 169/133/169 168/134/147 180/136/150 181/146/170
f 183/144/166 182/145/168 194/147/171 195/148/172
f 182/145/168 181/146/170 193/149/173 194/147/171
f 181/146/170 180/136/150 192/150/174 193/149/173
f 180/136/150 179/135/149 191/151/175 192/150/174
f 179/135/149 178/137/152 190/152/176 191/151/175
f 178/137/152 177/138/154 189/153/177 190/152/176
f 177/138/154 176/139/156 188/154/178 189/153/177
f 176/139/156 175/140/158 187/155/179 188/154/178
f 175/140/158 186/141/160 198/156/180 187/155/179
f 186/141/160 185/142/162 197/157/181 198/156/180
f 185/142/162 184/143/164 196/158/182 197/157/181
f 184/143/164 183/144/166 195/148/172 196/158/182
f 187/155/183 198/156/183 197/157/183 196/158/183 195/148/183 194/147/183 193/149/183 192/150/183 191/151/183 190/152/183 189/153/183 188/154/183
